<?xml version="1.0" encoding="UTF-8"?>
<svg version="1.1" xmlns="http://www.w3.org/2000/svg" width="512" height="512">
<path d="M0 0 C1.81156586 0.6662439 1.81156586 0.6662439 3.659729 1.34594727 C6.91787393 2.54552988 10.16889815 3.76331697 13.41823196 4.98653793 C15.40591844 5.73375128 17.39513522 6.47672322 19.38497925 7.21817017 C28.41748906 10.58409762 37.43615158 13.98597543 46.4508667 17.39923096 C50.26076193 18.84106523 54.07180466 20.27985964 57.8828125 21.71875 C59.4268805 22.30175619 60.97094788 22.884764 62.51501465 23.46777344 C63.65718697 23.89902527 63.65718697 23.89902527 64.82243347 24.33898926 C67.10945707 25.20263689 69.39635903 26.06660586 71.68322754 26.93066406 C83.92042206 31.55386088 96.16687233 36.15205053 108.41796875 40.73828125 C130.6426896 49.0611039 152.84997334 57.43009477 175.0556488 65.80356789 C176.49152247 66.34494775 177.92744532 66.88619721 179.36341858 67.42731285 C182.83291926 68.73483223 186.30168189 70.04423433 189.76879883 71.35806274 C196.01783521 73.72342019 202.27332012 76.05762452 208.56640625 78.30419922 C209.66694336 78.7017894 210.76748047 79.09937958 211.90136719 79.50901794 C213.91307303 80.23363578 215.92904989 80.94656873 217.95019531 81.64442444 C224.15109826 83.89162667 230.03805722 86.66130049 233.48636818 92.5685358 C234.49141173 94.9093337 234.67381315 96.4793933 234.68539429 99.01327515 C234.69392426 99.8599324 234.70245422 100.70658966 234.71124268 101.5789032 C234.7103363 102.49952042 234.70942993 103.42013763 234.70849609 104.36865234 C234.71857193 105.83273781 234.71857193 105.83273781 234.72885132 107.32640076 C234.74785819 110.55489179 234.75175687 113.78317524 234.75390625 117.01171875 C234.76033222 119.25607387 234.76706043 121.50042815 234.77407837 123.74478149 C234.78605781 128.45064232 234.78975849 133.15642969 234.78857422 137.86230469 C234.78837098 143.89054653 234.81567595 149.91831721 234.85011864 155.94644737 C234.87236241 160.58244996 234.87641253 165.2183387 234.87535477 169.85438919 C234.87771441 172.0767339 234.88655833 174.29908157 234.9020195 176.52137375 C234.92162816 179.63095797 234.91586112 182.73952021 234.90380859 185.84912109 C234.91504761 186.76568985 234.92628662 187.68225861 234.93786621 188.62660217 C234.88330201 194.1701748 234.11665586 197.34137938 230.41796875 201.73828125 C227.25351278 204.65931753 224.40972211 206.21888264 220.41796875 207.73828125 C220.40862305 208.70652832 220.39927734 209.67477539 220.38964844 210.67236328 C220.34960092 214.28463772 220.28380321 217.8960736 220.21044922 221.5078125 C220.18232462 223.06727275 220.16106786 224.62687329 220.14697266 226.18652344 C220.12542333 228.43627298 220.07871818 230.68435099 220.02734375 232.93359375 C220.02611511 233.62446075 220.02488647 234.31532776 220.02362061 235.02713013 C219.87431938 240.02612873 218.50901443 242.85983987 215.41796875 246.73828125 C212.05551612 249.84208368 209.79811235 250.98622381 205.41796875 252.73828125 C205.08796875 307.18828125 204.75796875 361.63828125 204.41796875 417.73828125 C206.39796875 418.06828125 208.37796875 418.39828125 210.41796875 418.73828125 C212.46484375 420.0078125 212.46484375 420.0078125 214.16796875 421.55078125 C214.7403125 422.05222656 215.31265625 422.55367188 215.90234375 423.0703125 C219.66216524 427.2080542 219.69033496 431.16903822 219.61328125 436.56640625 C219.60903641 437.68991486 219.60903641 437.68991486 219.60470581 438.83612061 C219.59354135 441.22033901 219.56844406 443.60417704 219.54296875 445.98828125 C219.5329341 447.60806748 219.5238091 449.22785961 219.515625 450.84765625 C219.4936143 454.81134371 219.4591105 458.77474806 219.41796875 462.73828125 C220.36575195 462.87709717 221.31353516 463.01591309 222.29003906 463.15893555 C225.53171414 463.75934883 226.77332522 464.38132209 229.16796875 466.55078125 C229.7403125 467.05222656 230.31265625 467.55367188 230.90234375 468.0703125 C235.46003993 473.08612763 234.78498706 478.69600134 234.79296875 485.11328125 C234.81746094 486.14195312 234.84195313 487.170625 234.8671875 488.23046875 C234.89106644 494.40715346 234.56323208 498.05594914 230.41796875 502.73828125 C225.28155406 507.263218 222.22997744 507.88524831 215.53612137 507.87250233 C214.29440155 507.87603067 214.29440155 507.87603067 213.02759647 507.8796303 C210.2235646 507.88634472 207.41957881 507.88586134 204.61553955 507.88545227 C202.59693669 507.88874937 200.5783345 507.89247461 198.55973315 507.89659375 C192.98906338 507.90663929 187.41840438 507.91033463 181.84772682 507.91298306 C175.84894983 507.91687854 169.85018143 507.92645736 163.85140991 507.93519592 C150.03849295 507.95404594 136.22557535 507.96421941 122.41264919 507.9726566 C115.58955181 507.97686079 108.76645531 507.98208308 101.94335868 507.98734113 C78.59570087 508.00523246 55.24804282 508.02022942 31.90037918 508.02766132 C30.43416716 508.02813608 28.96795514 508.02861197 27.50174312 508.02908899 C26.41105878 508.02944355 26.41105878 508.02944355 25.29834041 508.02980528 C21.61425819 508.0310065 17.93017597 508.03222194 14.24609375 508.03344727 C13.51497116 508.03368742 12.78384856 508.03392757 12.03057074 508.03417499 C-11.68003505 508.04206985 -35.39059084 508.06550495 -59.1011748 508.09800321 C-84.15834931 508.13228456 -109.21549456 508.15201088 -134.27269292 508.15530556 C-137.02228245 508.15572312 -139.77187197 508.15620268 -142.52146149 508.15672874 C-143.53703078 508.15691353 -143.53703078 508.15691353 -144.57311663 508.15710205 C-155.47879059 508.15943618 -166.38440658 508.17510796 -177.29005987 508.19557059 C-188.24780349 508.21580509 -199.20548679 508.22098317 -210.16324708 508.21179996 C-216.10215713 508.2072404 -222.04087858 508.20923743 -227.97976303 508.2285614 C-233.41294705 508.24608776 -238.84580342 508.24528138 -244.27899042 508.22966411 C-246.24807272 508.22727196 -248.2171771 508.23169403 -250.1862255 508.24349276 C-252.85682566 508.25850833 -255.52624927 508.24901127 -258.19681931 508.23326588 C-258.96661479 508.24348808 -259.73641028 508.25371029 -260.52953291 508.26424226 C-265.69510725 508.19748043 -268.5961248 506.98292346 -272.58203125 503.73828125 C-277.99561744 497.59312935 -277.82151672 493.44199704 -277.89453125 485.48828125 C-277.92353516 484.45058594 -277.95253906 483.41289062 -277.98242188 482.34375 C-278.03410637 476.11775607 -277.75644594 472.46417825 -273.58203125 467.73828125 C-269.9782713 464.22935709 -267.49180476 463.42132137 -262.58203125 462.73828125 C-262.60297852 461.73974121 -262.62392578 460.74120117 -262.64550781 459.71240234 C-262.71819825 455.98891682 -262.76393545 452.26549335 -262.80175781 448.54150391 C-262.82180752 446.93332351 -262.84905489 445.32521542 -262.88378906 443.71728516 C-262.93260389 441.39858105 -262.95506553 439.080845 -262.97265625 436.76171875 C-262.99330139 436.04897797 -263.01394653 435.33623718 -263.03521729 434.60189819 C-263.03748852 429.48806099 -261.75839999 426.69085228 -258.58203125 422.73828125 C-254.65192062 418.91159458 -253.3794642 418.70452008 -247.58203125 417.73828125 C-248.07703125 336.06328125 -248.07703125 336.06328125 -248.58203125 252.73828125 C-251.22203125 251.41828125 -253.86203125 250.09828125 -256.58203125 248.73828125 C-261.58525531 243.41570246 -262.73188586 240.41493278 -262.8984375 233.32421875 C-262.9192186 232.59457916 -262.93999969 231.86493958 -262.96141052 231.1131897 C-263.02685042 228.77998362 -263.08576493 226.44666404 -263.14453125 224.11328125 C-263.18772178 222.5325403 -263.23133624 220.95181086 -263.27539062 219.37109375 C-263.38252606 215.49360621 -263.48380907 211.6160044 -263.58203125 207.73828125 C-264.12545166 207.48578613 -264.66887207 207.23329102 -265.22875977 206.97314453 C-266.30275024 206.45856689 -266.30275024 206.45856689 -267.3984375 205.93359375 C-268.46106812 205.43110107 -268.46106812 205.43110107 -269.54516602 204.91845703 C-273.25835395 202.76700666 -275.66695984 199.56842407 -277.58203125 195.73828125 C-277.69135423 192.62730377 -277.7393769 189.53837317 -277.74316406 186.42675781 C-277.74812897 185.46074646 -277.75309387 184.49473511 -277.75820923 183.49945068 C-277.77285516 180.29259537 -277.7796375 177.08578956 -277.78515625 173.87890625 C-277.79090644 171.65411375 -277.79666419 169.42932127 -277.8024292 167.20452881 C-277.81294662 162.53381112 -277.81878419 157.86311068 -277.82226562 153.19238281 C-277.82774676 147.20901808 -277.85176367 141.22588132 -277.88023758 135.24258804 C-277.8988687 130.6443414 -277.90406986 126.04614955 -277.9056015 121.44786835 C-277.90862833 119.24227403 -277.91665785 117.03668068 -277.92978668 114.83112335 C-277.94685402 111.74303408 -277.94496488 108.6555002 -277.93847656 105.56738281 C-277.94769135 104.65702271 -277.95690613 103.7466626 -277.96640015 102.80871582 C-277.93287066 97.71065787 -277.55630832 94.06982026 -274.58203125 89.73828125 C-270.62657517 85.87607143 -266.91031929 83.77279183 -261.75170898 81.86669922 C-260.76688286 81.49708824 -260.76688286 81.49708824 -259.76216125 81.12001038 C-257.60072616 80.31201242 -255.43339877 79.52128537 -253.265625 78.73046875 C-251.72901204 78.15970627 -250.19281058 77.5878349 -248.65699768 77.0149231 C-244.60320096 75.50593679 -240.54424857 74.01134033 -236.48394775 72.5199585 C-232.46354941 71.0408239 -228.44765484 69.54958219 -224.43164062 68.05859375 C-219.70569894 66.30411113 -214.97916533 64.55139178 -210.24838257 62.80999756 C-202.81536369 60.07125431 -195.39976787 57.2984771 -188.02001953 54.41894531 C-186.67841942 53.89829178 -185.3367911 53.37771092 -183.99513245 52.85720825 C-181.52567283 51.89860354 -179.06372024 50.92556771 -176.6033783 49.94332886 C-166.47202334 46.00548763 -166.47202334 46.00548763 -160.58203125 46.73828125 C-158.20703125 47.80078125 -158.20703125 47.80078125 -156.58203125 49.73828125 C-155.74808482 53.01449938 -155.21264298 55.50019066 -156.19158936 58.78135681 C-158.21704495 61.63200708 -160.47982362 62.3117958 -163.70410156 63.61157227 C-164.32485188 63.86481797 -164.94560219 64.11806368 -165.58516312 64.3789835 C-167.57740431 65.18376673 -169.57752209 65.96459863 -171.58203125 66.73828125 C-172.21821884 66.98472759 -172.85440643 67.23117393 -173.50987244 67.48508835 C-178.19964221 69.29055621 -182.91252886 71.03113678 -187.62890625 72.765625 C-189.13532468 73.32285037 -190.64160834 73.8804402 -192.14776611 74.43836975 C-196.07854651 75.89359131 -200.01078921 77.34481508 -203.94348145 78.79486084 C-210.2091846 81.10571313 -216.47295854 83.42178906 -222.73622131 85.73924637 C-224.24224508 86.29636572 -225.74837833 86.85318922 -227.25462341 87.40970993 C-236.47417652 90.81679888 -245.68019965 94.25169518 -254.80194092 97.91477966 C-259.37970782 99.73828125 -259.37970782 99.73828125 -261.58203125 99.73828125 C-261.60516523 111.30789453 -261.62295175 122.87750235 -261.63384342 134.44713402 C-261.63906993 139.81893097 -261.64616339 145.19071214 -261.6574707 150.5625 C-261.66830779 155.74311097 -261.67430984 160.92370673 -261.67690849 166.10432816 C-261.67876125 168.08434921 -261.68237903 170.0643694 -261.68776131 172.044384 C-261.69498261 174.81004408 -261.69602173 177.57564066 -261.69555664 180.34130859 C-261.69915192 181.16633377 -261.70274719 181.99135895 -261.70645142 182.84138489 C-261.7999678 186.92121503 -261.7999678 186.92121503 -260.58203125 190.73828125 C-102.84203125 190.73828125 54.89796875 190.73828125 217.41796875 190.73828125 C219.04360261 187.48701352 218.54705835 183.9129015 218.53149414 180.34130859 C218.53171318 179.03876884 218.53171318 179.03876884 218.53193665 177.70991516 C218.53123836 174.83132453 218.52344985 171.95279811 218.515625 169.07421875 C218.51376052 167.08167557 218.51233676 165.08913194 218.51133728 163.09658813 C218.50751444 157.84569031 218.49768612 152.59482003 218.4866333 147.34393311 C218.47641418 141.98840711 218.47183858 136.63287668 218.46679688 131.27734375 C218.45606366 120.7643108 218.43899002 110.25129831 218.41796875 99.73828125 C217.85316803 99.58008911 217.28836731 99.42189697 216.70645142 99.25891113 C209.28330956 97.11254541 202.09835531 94.45313217 194.87890625 91.70703125 C193.54531214 91.20268875 192.21159368 90.69867497 190.87776184 90.19496155 C188.01702566 89.11395972 185.15706335 88.03094472 182.29769897 86.94631958 C177.70414199 85.2040104 173.10874347 83.46659669 168.51293945 81.73022461 C167.73065129 81.43465259 166.94836313 81.13908056 166.14236927 80.83455181 C164.54510303 80.23106661 162.94783107 79.62759654 161.35055351 79.02414131 C158.91148781 78.10249793 156.47258151 77.18043382 154.03370667 76.25828552 C137.97440164 70.18715078 121.90037901 64.15549961 105.823246 58.13176346 C102.12190176 56.74490136 98.42070105 55.35765629 94.71948242 53.97045898 C90.23651796 52.29029737 85.75353149 50.61019456 81.27046204 48.93031311 C70.77820838 44.99855483 60.28716968 41.06356591 49.79671288 37.12701607 C44.81101292 35.25617489 39.82520293 33.38562697 34.83940601 31.51504421 C30.85852574 30.02145415 26.8777155 28.52767802 22.89706421 27.03347778 C19.19124977 25.6424511 15.48523798 24.25195146 11.77908325 22.86183167 C10.42739523 22.35472676 9.07577878 21.84743101 7.72424316 21.33992004 C4.70365027 20.20570978 1.68182043 19.0757094 -1.34512329 17.95852661 C-3.40689116 17.18128404 -5.45680455 16.37125359 -7.48861694 15.51876831 C-20.37760555 10.26885934 -30.55390335 13.19281639 -43.046875 18.0390625 C-44.52902497 18.59734758 -46.01183493 19.15388322 -47.49525452 19.70878601 C-51.39191225 21.17174192 -55.27923432 22.65805846 -59.16497803 24.14971924 C-63.01675028 25.62375075 -66.87686066 27.0755626 -70.73632812 28.52929688 C-87.37585277 34.80611469 -87.37585277 34.80611469 -103.95608044 41.23732853 C-106.6207699 42.28440075 -109.28906212 43.32209846 -111.95773506 44.35896873 C-113.77667385 45.07056516 -115.58986409 45.79680176 -117.40281677 46.52351379 C-123.38294694 48.84518747 -128.150337 50.48095708 -134.58203125 49.73828125 C-137.08203125 48.17578125 -137.08203125 48.17578125 -138.58203125 45.73828125 C-139.08203125 42.23828125 -139.08203125 42.23828125 -138.58203125 38.73828125 C-135.45480903 34.65860556 -131.37222965 33.13569789 -126.70703125 31.36328125 C-125.85246338 31.03005859 -124.99789551 30.69683594 -124.11743164 30.35351562 C-111.86677027 25.62222572 -99.51406648 21.15078848 -87.18359375 16.6328125 C-74.77670842 12.08621842 -62.39611471 7.46919863 -50.01535034 2.85205078 C-48.18129125 2.16809746 -46.34716732 1.48431794 -44.51296997 0.80073547 C-42.84431195 0.17881393 -41.17582484 -0.44356643 -39.50753784 -1.06648254 C-25.27416627 -6.37140511 -14.11733063 -5.33824508 0 0 Z M-247.58203125 207.73828125 C-249.2694505 223.05196633 -249.2694505 223.05196633 -245.58203125 236.73828125 C-242.80908598 237.19210754 -242.80908598 237.19210754 -239.51171875 237.1105957 C-238.23699707 237.11682449 -236.96227539 237.12305328 -235.64892578 237.12947083 C-234.25162365 237.12078301 -232.85432531 237.11146506 -231.45703125 237.1015625 C-230.02978516 237.10104404 -228.60253835 237.10156119 -227.17529297 237.10307312 C-224.1825089 237.10298334 -221.18999389 237.0925424 -218.19726562 237.07446289 C-214.35684919 237.05177526 -210.51682608 237.05123089 -206.67636108 237.05798054 C-203.72872407 237.06131856 -200.78117708 237.05469364 -197.83355713 237.0448513 C-196.41734284 237.0409961 -195.00111855 237.03985241 -193.5848999 237.04143715 C-191.6073584 237.04180709 -189.62983 237.02772654 -187.65234375 237.01293945 C-186.52586426 237.00833206 -185.39938477 237.00372467 -184.23876953 236.99897766 C-181.42748339 237.00684847 -181.42748339 237.00684847 -179.58203125 234.73828125 C-179.58203125 225.82828125 -179.58203125 216.91828125 -179.58203125 207.73828125 C-202.02203125 207.73828125 -224.46203125 207.73828125 -247.58203125 207.73828125 Z M-163.58203125 207.73828125 C-163.91203125 217.63828125 -164.24203125 227.53828125 -164.58203125 237.73828125 C-168.19427615 246.16685268 -168.19427615 246.16685268 -172.58203125 249.73828125 C-174.56203125 250.39828125 -176.54203125 251.05828125 -178.58203125 251.73828125 C-178.58203125 306.51828125 -178.58203125 361.29828125 -178.58203125 417.73828125 C-175.94203125 419.05828125 -173.30203125 420.37828125 -170.58203125 421.73828125 C-159.98928847 432.60978042 -164.09083275 446.47423629 -163.58203125 461.73828125 C-133.22203125 461.73828125 -102.86203125 461.73828125 -71.58203125 461.73828125 C-71.25203125 452.49828125 -70.92203125 443.25828125 -70.58203125 433.73828125 C-67.13758681 423.40494792 -67.13758681 423.40494792 -61.58203125 419.73828125 C-59.93203125 419.07828125 -58.28203125 418.41828125 -56.58203125 417.73828125 C-56.58203125 362.95828125 -56.58203125 308.17828125 -56.58203125 251.73828125 C-60.04703125 250.25328125 -60.04703125 250.25328125 -63.58203125 248.73828125 C-74.63233037 237.93354434 -71.05703245 222.43824775 -71.58203125 207.73828125 C-101.94203125 207.73828125 -132.30203125 207.73828125 -163.58203125 207.73828125 Z M-55.58203125 207.73828125 C-55.58203125 216.64828125 -55.58203125 225.55828125 -55.58203125 234.73828125 C-52.84741366 237.47289884 -51.33918452 236.9916639 -47.51171875 236.99707031 C-45.59963623 237.00652679 -45.59963623 237.00652679 -43.64892578 237.01617432 C-42.25162621 237.01259464 -40.85432788 237.00849271 -39.45703125 237.00390625 C-38.02978448 237.00525296 -36.60253816 237.00719354 -35.17529297 237.00970459 C-32.1825728 237.01265559 -29.18997194 237.00835907 -26.19726562 236.99902344 C-22.35686752 236.9876288 -18.51674893 236.99418842 -14.67636108 237.00616837 C-11.72873825 237.01338768 -8.78118194 237.01109873 -5.83355713 237.00591278 C-4.41733772 237.00457648 -3.00111231 237.00622334 -1.5848999 237.01087189 C0.39261768 237.015938 2.37015637 237.00685033 4.34765625 236.99707031 C5.47413574 236.99547913 6.60061523 236.99388794 7.76123047 236.99224854 C10.57270711 237.0079494 10.57270711 237.0079494 12.41796875 234.73828125 C12.41796875 225.82828125 12.41796875 216.91828125 12.41796875 207.73828125 C-10.02203125 207.73828125 -32.46203125 207.73828125 -55.58203125 207.73828125 Z M28.41796875 207.73828125 C28.08796875 217.30828125 27.75796875 226.87828125 27.41796875 236.73828125 C23.86011751 246.22588456 23.86011751 246.22588456 19.41796875 249.73828125 C17.43796875 250.39828125 15.45796875 251.05828125 13.41796875 251.73828125 C13.41796875 306.51828125 13.41796875 361.29828125 13.41796875 417.73828125 C16.05796875 419.05828125 18.69796875 420.37828125 21.41796875 421.73828125 C31.72696602 432.04727852 27.96477882 448.59577336 28.41796875 461.73828125 C58.77796875 461.73828125 89.13796875 461.73828125 120.41796875 461.73828125 C120.74796875 451.83828125 121.07796875 441.93828125 121.41796875 431.73828125 C125.54914343 423.47593188 127.27966374 420.86317299 135.41796875 417.73828125 C135.4260556 417.18340027 135.43414246 416.62851929 135.44247437 416.05682373 C135.52853131 410.28162718 135.62803542 404.50677341 135.73535156 398.73193359 C135.77363477 396.57671872 135.80848879 394.42144009 135.83984375 392.26611328 C135.88550825 389.16806249 135.94350087 386.07045034 136.00390625 382.97265625 C136.01545746 382.00898132 136.02700867 381.0453064 136.03890991 380.0524292 C136.0587796 379.15179749 136.07864929 378.25116577 136.09912109 377.32324219 C136.11244476 376.53270447 136.12576843 375.74216675 136.13949585 374.92767334 C136.45279326 372.46448621 137.10945837 370.84116306 138.41796875 368.73828125 C141.46780871 367.21336127 144.06030565 367.50265577 147.41796875 367.73828125 C149.5779514 369.30565602 150.31735466 370.20657943 150.81669617 372.84538269 C150.82779922 373.65590591 150.83890228 374.46642914 150.8503418 375.30151367 C150.87013596 376.22224167 150.88993011 377.14296967 150.9103241 378.09159851 C150.91990898 379.5776635 150.91990898 379.5776635 150.9296875 381.09375 C150.9476387 382.11052322 150.9655899 383.12729645 150.98408508 384.17488098 C151.03830415 387.42513877 151.07212134 390.67524875 151.10546875 393.92578125 C151.13863154 396.12827583 151.17312022 398.33075088 151.20898438 400.53320312 C151.29653574 405.93491849 151.35650641 411.33595354 151.41796875 416.73828125 C163.95796875 416.73828125 176.49796875 416.73828125 189.41796875 416.73828125 C189.41796875 362.61828125 189.41796875 308.49828125 189.41796875 252.73828125 C176.87796875 252.73828125 164.33796875 252.73828125 151.41796875 252.73828125 C151.39814941 255.44893799 151.37833008 258.15959473 151.35791016 260.95239258 C151.29107577 269.89717066 151.21343534 278.84183125 151.13044167 287.78647327 C151.08044415 293.2108942 151.03411441 298.63529531 150.99609375 304.05981445 C150.95928462 309.29240076 150.9129366 314.52482274 150.85990524 319.75726891 C150.84133802 321.75596936 150.82623872 323.75470507 150.81462479 325.75345802 C150.79780216 328.5478062 150.76877688 331.34177611 150.73681641 334.13598633 C150.73357613 335.38215729 150.73357613 335.38215729 150.73027039 336.65350342 C150.67349742 340.52566557 150.61502248 342.44270066 148.41796875 345.73828125 C144.49786376 346.60941569 141.24774417 347.1170004 137.41796875 345.73828125 C136.23816899 341.51028686 136.24299466 337.38415428 136.21264648 333.02246094 C136.20274689 332.14405548 136.19284729 331.26565002 136.18264771 330.36062622 C136.15108914 327.46049687 136.12629755 324.56035116 136.1015625 321.66015625 C136.0809881 319.64804664 136.0599915 317.63594131 136.03858948 315.62384033 C135.98341899 310.33027613 135.93398754 305.03667324 135.88574219 299.74304199 C135.83549051 294.34037843 135.77982358 288.93777097 135.72460938 283.53515625 C135.61708923 272.93624586 135.51563059 262.33728674 135.41796875 251.73828125 C134.79728516 251.48433594 134.17660156 251.23039062 133.53710938 250.96875 C132.72435547 250.62457031 131.91160156 250.28039062 131.07421875 249.92578125 C130.26791016 249.58933594 129.46160156 249.25289062 128.63085938 248.90625 C125.37491437 247.18775476 124.03885805 244.98005986 122.41796875 241.73828125 C119.66448017 230.72432694 120.79618949 219.08490356 120.41796875 207.73828125 C90.05796875 207.73828125 59.69796875 207.73828125 28.41796875 207.73828125 Z M136.41796875 207.73828125 C136.41796875 216.64828125 136.41796875 225.55828125 136.41796875 234.73828125 C139.15080258 237.47111508 140.66280056 236.99729293 144.48828125 237.01293945 C146.40036377 237.02723747 146.40036377 237.02723747 148.35107422 237.04182434 C149.74837267 237.04156295 151.14567114 237.04062607 152.54296875 237.0390625 C153.97021612 237.04294774 155.39746233 237.04728205 156.82470703 237.05204773 C159.81742093 237.05951499 162.81001687 237.0592148 165.80273438 237.05395508 C169.64322296 237.04815589 173.48322999 237.06509927 177.32363892 237.08829975 C180.27126909 237.10301007 183.2187825 237.10391259 186.16644287 237.10079002 C187.58267166 237.10130448 188.99890678 237.10656545 190.4151001 237.11660194 C192.39258161 237.12889706 194.37016013 237.12025853 196.34765625 237.1105957 C197.47413574 237.11122513 198.60061523 237.11185455 199.76123047 237.11250305 C200.6379541 236.98900986 201.51467773 236.86551666 202.41796875 236.73828125 C207.79280725 228.6760235 204.41796875 217.42790915 204.41796875 207.73828125 C181.97796875 207.73828125 159.53796875 207.73828125 136.41796875 207.73828125 Z M-232.58203125 252.73828125 C-232.58203125 306.85828125 -232.58203125 360.97828125 -232.58203125 416.73828125 C-220.04203125 416.73828125 -207.50203125 416.73828125 -194.58203125 416.73828125 C-194.58203125 362.61828125 -194.58203125 308.49828125 -194.58203125 252.73828125 C-207.12203125 252.73828125 -219.66203125 252.73828125 -232.58203125 252.73828125 Z M-40.58203125 252.73828125 C-40.58203125 306.85828125 -40.58203125 360.97828125 -40.58203125 416.73828125 C-28.04203125 416.73828125 -15.50203125 416.73828125 -2.58203125 416.73828125 C-2.58203125 362.61828125 -2.58203125 308.49828125 -2.58203125 252.73828125 C-15.12203125 252.73828125 -27.66203125 252.73828125 -40.58203125 252.73828125 Z M-245.58203125 432.73828125 C-250.95686975 440.800539 -247.58203125 452.04865335 -247.58203125 461.73828125 C-225.14203125 461.73828125 -202.70203125 461.73828125 -179.58203125 461.73828125 C-179.58203125 452.82828125 -179.58203125 443.91828125 -179.58203125 434.73828125 C-182.31486508 432.00544742 -183.82686306 432.47926957 -187.65234375 432.46362305 C-188.92706543 432.45409103 -190.20178711 432.44455902 -191.51513672 432.43473816 C-192.91243517 432.43499955 -194.30973364 432.43593643 -195.70703125 432.4375 C-197.13427862 432.43361476 -198.56152483 432.42928045 -199.98876953 432.42451477 C-202.98148343 432.41704751 -205.97407937 432.4173477 -208.96679688 432.42260742 C-212.80728546 432.42840661 -216.64729249 432.41146323 -220.48770142 432.38826275 C-223.43533159 432.37355243 -226.382845 432.37264991 -229.33050537 432.37577248 C-230.74673416 432.37525802 -232.16296928 432.36999705 -233.5791626 432.35996056 C-235.55664411 432.34766544 -237.53422263 432.35630397 -239.51171875 432.3659668 C-240.63819824 432.36533737 -241.76467773 432.36470795 -242.92529297 432.36405945 C-243.8020166 432.48755264 -244.67874023 432.61104584 -245.58203125 432.73828125 Z M-55.58203125 434.73828125 C-55.58203125 443.64828125 -55.58203125 452.55828125 -55.58203125 461.73828125 C-33.14203125 461.73828125 -10.70203125 461.73828125 12.41796875 461.73828125 C12.41796875 452.82828125 12.41796875 443.91828125 12.41796875 434.73828125 C9.68335116 432.00366366 8.17512202 432.4848986 4.34765625 432.47949219 C3.07293457 432.47318787 1.79821289 432.46688354 0.48486328 432.46038818 C-0.91243629 432.46396786 -2.30973462 432.46806979 -3.70703125 432.47265625 C-5.13427802 432.47130954 -6.56152434 432.46936896 -7.98876953 432.46685791 C-10.9814897 432.46390691 -13.97409056 432.46820343 -16.96679688 432.47753906 C-20.80719498 432.4889337 -24.64731357 432.48237408 -28.48770142 432.47039413 C-31.43532425 432.46317482 -34.38288056 432.46546377 -37.33050537 432.47064972 C-38.74672478 432.47198602 -40.16295019 432.47033916 -41.5791626 432.46569061 C-43.55668018 432.4606245 -45.53421887 432.46971217 -47.51171875 432.47949219 C-48.63819824 432.48108337 -49.76467773 432.48267456 -50.92529297 432.48431396 C-53.73676961 432.4686131 -53.73676961 432.4686131 -55.58203125 434.73828125 Z M136.41796875 434.73828125 C136.41796875 443.64828125 136.41796875 452.55828125 136.41796875 461.73828125 C158.85796875 461.73828125 181.29796875 461.73828125 204.41796875 461.73828125 C206.105388 446.42459617 206.105388 446.42459617 202.41796875 432.73828125 C199.64502348 432.28445496 199.64502348 432.28445496 196.34765625 432.3659668 C195.07293457 432.35973801 193.79821289 432.35350922 192.48486328 432.34709167 C191.08756115 432.35577949 189.69026281 432.36509744 188.29296875 432.375 C186.86572266 432.37551846 185.43847585 432.37500131 184.01123047 432.37348938 C181.0184464 432.37357916 178.02593139 432.3840201 175.03320312 432.40209961 C171.19278669 432.42478724 167.35276358 432.42533161 163.51229858 432.41858196 C160.56466157 432.41524394 157.61711458 432.42186886 154.66949463 432.4317112 C153.25328034 432.4355664 151.83705605 432.43671009 150.4208374 432.43512535 C148.4432959 432.43475541 146.4657675 432.44883596 144.48828125 432.46362305 C143.36180176 432.46823044 142.23532227 432.47283783 141.07470703 432.47758484 C138.26342089 432.46971403 138.26342089 432.46971403 136.41796875 434.73828125 Z M-260.58203125 477.73828125 C-262.64723757 480.83609073 -262.87680149 481.69232935 -262.89453125 485.23828125 C-262.91128906 486.01171875 -262.92804688 486.78515625 -262.9453125 487.58203125 C-262.72604377 489.74647763 -262.72604377 489.74647763 -261.54649067 491.34945166 C-258.51524432 493.49247614 -255.36580766 493.14909644 -251.78739929 493.11580467 C-250.98117067 493.12016499 -250.17494206 493.12452532 -249.34428227 493.12901777 C-246.61957228 493.14004061 -243.89536131 493.12951951 -241.1706543 493.11923218 C-239.20679558 493.12268597 -237.2429388 493.12744864 -235.27908611 493.13341391 C-229.86445457 493.14599189 -224.44998069 493.13972275 -219.03534842 493.13045526 C-213.20296732 493.12369282 -207.37061415 493.13413201 -201.53823853 493.14239502 C-190.10547158 493.15576462 -178.67276358 493.15284027 -167.23999429 493.1441571 C-157.9518512 493.13739362 -148.66372468 493.13645803 -139.37557983 493.13972855 C-138.05578052 493.14018825 -136.73598121 493.14064794 -135.37618798 493.14112157 C-133.36744068 493.14183537 -131.35869338 493.142559 -129.34994609 493.14330225 C-104.23292842 493.15248508 -79.11594296 493.14414964 -53.99893026 493.12801156 C-31.67016802 493.11377409 -9.3414571 493.11504795 12.98730469 493.12939453 C38.05755368 493.14544861 63.12777419 493.15183391 88.19802761 493.14255774 C90.86919085 493.14159555 93.54035409 493.14065894 96.21151733 493.13972855 C97.52592672 493.13926572 98.84033611 493.13880289 100.19457608 493.13832604 C109.47612941 493.13573115 118.75766458 493.14011788 128.03921509 493.14716721 C139.34377491 493.15556392 150.64827221 493.15334068 161.95282483 493.13732497 C167.72526191 493.12941757 173.49759457 493.12639253 179.27003098 493.13627243 C184.54754778 493.14516892 189.82486276 493.14037035 195.10236108 493.12433977 C197.01819164 493.12097045 198.93403902 493.12273382 200.84985888 493.12996714 C203.44126538 493.13900558 206.03196794 493.12981956 208.62333679 493.11580467 C209.37826664 493.12282817 210.13319649 493.12985167 210.91100299 493.137088 C214.89737366 493.10090028 214.89737366 493.10090028 218.38242817 491.34945166 C219.75574138 489.21274968 219.78519235 487.7639857 219.73046875 485.23828125 C219.72660156 484.46484375 219.72273438 483.69140625 219.71875 482.89453125 C219.53622336 480.44503179 219.53622336 480.44503179 217.41796875 477.73828125 C214.77288312 477.43786926 212.36058623 477.33631817 209.71235657 477.36075783 C208.90360545 477.35639751 208.09485433 477.35203718 207.26159561 477.34754473 C204.52229451 477.33650246 201.78348777 477.34705188 199.04418945 477.35733032 C197.07223151 477.3538773 195.10027549 477.34911514 193.12832355 477.34314859 C187.68669923 477.3305601 182.2452316 477.33684444 176.80360651 477.34610724 C170.9439602 477.35286544 165.08434178 477.34243262 159.22470093 477.33416748 C147.73665292 477.3207933 136.24866355 477.32372425 124.7606132 477.3324054 C115.42810261 477.33927303 106.09560546 477.34018481 96.76309204 477.33683395 C96.10084601 477.3366048 95.43859998 477.33637564 94.75628588 477.33613954 C92.06825017 477.33520558 89.38021447 477.33425039 86.69217877 477.33326025 C61.45829694 477.32407602 36.22444715 477.33241509 10.99057026 477.34855094 C-11.44543127 477.36278856 -33.88138173 477.36151472 -56.31738281 477.34716797 C-81.50407731 477.33111626 -106.69074346 477.32472727 -131.87744236 477.33400476 C-134.56067975 477.33496696 -137.24391714 477.33590548 -139.92715454 477.33683395 C-140.58787262 477.33707119 -141.24859071 477.33730842 -141.92933055 477.33755284 C-151.92224683 477.3409703 -161.91513852 477.33694662 -171.90805054 477.32939529 C-183.26646186 477.32100118 -194.62481095 477.32321627 -205.98321509 477.33923753 C-211.78387489 477.34714848 -217.58443074 477.35016402 -223.38508987 477.34029007 C-228.68726627 477.33140082 -233.98924164 477.33617995 -239.2913996 477.35222273 C-241.2173364 477.35559517 -243.14328993 477.35382186 -245.06921613 477.34659536 C-247.67186426 477.33757303 -250.27380876 477.34672605 -252.87641907 477.36075783 C-253.63747047 477.35373433 -254.39852186 477.34671083 -255.18263543 477.3394745 C-257.48048566 477.32900606 -257.48048566 477.32900606 -260.58203125 477.73828125 Z " fill="#000000" transform="translate(277.58203125,4.26171875)"/>
<path d="M0 0 C0.639375 -0.01289062 1.27875 -0.02578125 1.9375 -0.0390625 C5.22420468 1.01915681 6.76145769 3.03369549 9 5.625 C10.07037395 8.22145695 10.90262133 10.57965144 11.640625 13.26171875 C11.85313904 13.98237015 12.06565308 14.70302155 12.28460693 15.44551086 C12.95503019 17.73038456 13.60303547 20.02088608 14.25 22.3125 C14.91618908 24.61315947 15.5868416 26.91248019 16.25823975 29.21162415 C16.67303675 30.63832207 17.08386244 32.0661819 17.49029541 33.49528503 C18.52185431 37.14341444 18.52185431 37.14341444 20 40.625 C20.29245605 39.61598633 20.58491211 38.60697266 20.88623047 37.56738281 C21.97447954 33.81657478 23.0677807 30.06725507 24.16259766 26.31835938 C24.63532773 24.69701512 25.10669513 23.0752729 25.57666016 21.453125 C26.25323547 19.11872562 26.93473235 16.78581123 27.6171875 14.453125 C27.82560272 13.73006165 28.03401794 13.00699829 28.24874878 12.26202393 C30.85854056 3.38597296 30.85854056 3.38597296 35 0.625 C41.94226093 -0.15880365 41.94226093 -0.15880365 45.609375 2.55859375 C48.76714461 6.60900085 49.4504793 10.14369304 50.375 15.125 C50.56852051 16.09244141 50.76204102 17.05988281 50.96142578 18.05664062 C51.40131625 20.2781724 51.83142372 22.50165451 52.25390625 24.7265625 C52.951132 28.36965832 53.67523087 32.00612523 54.4078064 35.64221191 C55.07587151 38.96989854 55.73172192 42.29991551 56.38458252 45.63061523 C56.70998048 47.28566988 57.03836265 48.94014075 57.36981201 50.59399414 C57.8387582 52.9460107 58.29232576 55.30051832 58.7421875 57.65625 C58.88458862 58.3565332 59.02698975 59.05681641 59.17370605 59.77832031 C60.10620144 64.78145279 60.64153685 70.03309972 57.8125 74.5 C55.15800608 76.14761692 53.11672513 76.50033099 50 76.625 C47.4375 75.58203125 47.4375 75.58203125 45 73.625 C44.02617197 71.1238951 43.40133275 69.03077242 42.875 66.4375 C42.71741211 65.74076172 42.55982422 65.04402344 42.39746094 64.32617188 C41.90360095 62.09731691 41.44595947 59.86390833 41 57.625 C40.84756836 56.86106934 40.69513672 56.09713867 40.53808594 55.31005859 C39.64232432 50.75676495 38.80229252 46.19563619 38 41.625 C37.80365967 42.27460693 37.60731934 42.92421387 37.4050293 43.59350586 C36.50048881 46.58356639 35.59400649 49.57303495 34.6875 52.5625 C34.37876953 53.58408203 34.07003906 54.60566406 33.75195312 55.65820312 C32.32337484 60.36499263 30.88309496 65.06800585 29.375 69.75 C29.14941406 70.45253906 28.92382812 71.15507812 28.69140625 71.87890625 C28 73.625 28 73.625 26.3125 75.6875 C22.90288191 77.0697776 19.53854657 77.62659977 16 76.625 C11.70254111 72.9885909 10.07559423 69.94984543 8.54296875 64.57421875 C8.35027908 63.91541214 8.15758942 63.25660553 7.95906067 62.57783508 C7.3531807 60.49345517 6.77008637 58.40349576 6.1875 56.3125 C5.77818732 54.88954318 5.36739412 53.46701136 4.95507812 52.04492188 C3.95288925 48.57636226 2.97101481 45.10243289 2 41.625 C1.83395264 42.5128418 1.66790527 43.40068359 1.49682617 44.31542969 C0.87356786 47.61958507 0.24070866 50.92160034 -0.39868164 54.22265625 C-0.67304227 55.64965526 -0.94359494 57.07739203 -1.21020508 58.50585938 C-1.59489591 60.56327478 -1.99336523 62.6176167 -2.39453125 64.671875 C-2.63018799 65.90776367 -2.86584473 67.14365234 -3.10864258 68.41699219 C-3.98322536 71.56462784 -4.70842273 73.32545263 -7 75.625 C-10.42890226 76.49781149 -12.89259577 76.95422829 -16.3125 75.9375 C-18.39326372 74.31912821 -19.03324414 73.07416629 -20 70.625 C-20.17006756 62.74530544 -18.27007991 54.64273069 -16.890625 46.9140625 C-16.68193787 45.74289886 -16.47325073 44.57173523 -16.25823975 43.36508179 C-15.81734161 40.90903861 -15.3734726 38.45352704 -14.92675781 35.99853516 C-14.47393103 33.49034524 -14.0299795 30.98053747 -13.59472656 28.46923828 C-12.96255331 24.82212144 -12.30463833 21.18050002 -11.640625 17.5390625 C-11.45083069 16.41819244 -11.26103638 15.29732239 -11.06549072 14.14248657 C-9.85477962 7.70572322 -8.16649347 -0.16464705 0 0 Z " fill="#000000" transform="translate(417,105.375)"/>
<path d="M0 0 C0.639375 -0.01289062 1.27875 -0.02578125 1.9375 -0.0390625 C5.26178129 1.03125534 7.126058 2.77151423 9 5.625 C10.71717439 9.76336772 11.95345484 14.00897798 13.1875 18.3125 C13.70086914 20.0130957 13.70086914 20.0130957 14.22460938 21.74804688 C16.17522152 28.31952662 17.80852771 34.87396271 19 41.625 C19.66 41.625 20.32 41.625 21 41.625 C21.19251343 40.09879028 21.19251343 40.09879028 21.38891602 38.54174805 C21.95792457 34.89468284 22.76494949 31.50285408 23.77734375 27.95703125 C24.12603516 26.73435547 24.47472656 25.51167969 24.83398438 24.25195312 C25.38022461 22.36379883 25.38022461 22.36379883 25.9375 20.4375 C26.30176358 19.15439088 26.66569856 17.87118842 27.02929688 16.58789062 C30.77903202 3.52942073 30.77903202 3.52942073 33.6875 1.375 C36.98705596 0.30487374 39.55037045 0.2618811 43 0.625 C45.84616381 2.17548984 47.58027203 3.52238236 48.75463867 6.60742188 C49.40550405 9.24696665 49.90674136 11.88440878 50.375 14.5625 C50.56852051 15.58142334 50.76204102 16.60034668 50.96142578 17.65014648 C51.40022999 19.96937074 51.83045763 22.2902277 52.25390625 24.61230469 C52.9347296 28.3179489 53.66730604 32.01221617 54.4078064 35.7063446 C55.07454765 39.03570338 55.73042152 42.3671543 56.38458252 45.69900513 C56.70999266 47.35021354 57.03837517 49.00083912 57.36981201 50.65084839 C57.83854365 52.99566107 58.29210177 55.34295262 58.7421875 57.69140625 C58.88458862 58.38851715 59.02698975 59.08562805 59.17370605 59.80386353 C60.10912784 64.79866718 60.6367416 70.04067116 57.8125 74.5 C55.15800608 76.14761692 53.11672513 76.50033099 50 76.625 C47.3125 75.875 47.3125 75.875 45 73.625 C40.76076739 63.9183459 39.89305427 52.01004411 38 41.625 C37.80365967 42.27460693 37.60731934 42.92421387 37.4050293 43.59350586 C36.50048881 46.58356639 35.59400649 49.57303495 34.6875 52.5625 C34.37876953 53.58408203 34.07003906 54.60566406 33.75195312 55.65820312 C32.32337484 60.36499263 30.88309496 65.06800585 29.375 69.75 C29.14941406 70.45253906 28.92382812 71.15507812 28.69140625 71.87890625 C28 73.625 28 73.625 26.3125 75.6875 C22.90288191 77.0697776 19.53854657 77.62659977 16 76.625 C11.70254111 72.9885909 10.07559423 69.94984543 8.54296875 64.57421875 C8.35027908 63.91541214 8.15758942 63.25660553 7.95906067 62.57783508 C7.3531807 60.49345517 6.77008637 58.40349576 6.1875 56.3125 C5.77818732 54.88954318 5.36739412 53.46701136 4.95507812 52.04492188 C3.95288925 48.57636226 2.97101481 45.10243289 2 41.625 C1.83395264 42.5128418 1.66790527 43.40068359 1.49682617 44.31542969 C0.87356786 47.61958507 0.24070866 50.92160034 -0.39868164 54.22265625 C-0.67304227 55.64965526 -0.94359494 57.07739203 -1.21020508 58.50585938 C-1.59489591 60.56327478 -1.99336523 62.6176167 -2.39453125 64.671875 C-2.63018799 65.90776367 -2.86584473 67.14365234 -3.10864258 68.41699219 C-3.98322536 71.56462784 -4.70842273 73.32545263 -7 75.625 C-10.42890226 76.49781149 -12.89259577 76.95422829 -16.3125 75.9375 C-18.38190384 74.32796368 -19.02778275 73.05292819 -20 70.625 C-20.05072021 68.4980011 -20.05072021 68.4980011 -19.75683594 66.17700195 C-19.64658081 65.29509186 -19.53632568 64.41318176 -19.42272949 63.50454712 C-18.10391325 54.52103972 -16.51715791 45.58553658 -14.92675781 36.64672852 C-14.47426753 34.08310663 -14.03030166 31.51796603 -13.59472656 28.95141602 C-12.96252053 25.22829289 -12.30452836 21.51055386 -11.640625 17.79296875 C-11.45083069 16.64708786 -11.26103638 15.50120697 -11.06549072 14.32060242 C-9.8712278 7.83006298 -8.26186442 -0.16656985 0 0 Z " fill="#000000" transform="translate(55,105.375)"/>
<path d="M0 0 C8.93653128 6.49106157 13.42771387 14.72578734 15.375 25.4921875 C16.40285101 34.59601071 13.56218806 44.03011696 8.1875 51.4296875 C0.68307478 60.11315192 -8.25911896 63.66055577 -19.5 64.9296875 C-29.42710031 64.44046695 -38.68967753 60.5676175 -45.625 53.4921875 C-51.6999737 46.4291961 -55.43432391 37.16211436 -54.96875 27.71484375 C-53.3394415 17.17988311 -49.69550934 8.71351406 -41.55859375 1.71484375 C-28.91545926 -7.53567862 -13.47104711 -7.73783361 0 0 Z M-32.375 15.0546875 C-36.13453438 19.12751641 -38.30972687 24.09218316 -38.82421875 29.640625 C-38.45289301 35.00893424 -36.09594116 39.44724056 -32.625 43.4921875 C-28.38027596 47.07593261 -23.20701319 48.90233542 -17.625 48.4921875 C-10.89094366 46.83441522 -6.32461285 44.38844548 -2.625 38.4921875 C-0.23681209 32.63027172 -0.01255282 27.41953409 -2.4140625 21.5703125 C-5.27139678 16.13440825 -8.43633461 13.26014027 -14.1875 11.2421875 C-21.30156537 9.69002778 -26.24777435 11.57330929 -32.375 15.0546875 Z " fill="#000000" transform="translate(275.625,34.5078125)"/>
<path d="M0 0 C2.18554688 1.36547852 2.18554688 1.36547852 4 4 C4.58084093 7.56916977 4.50905149 11.10604978 4.46875 14.71484375 C4.47579956 15.76273575 4.48284912 16.81062775 4.4901123 17.89027405 C4.51963732 22.37188291 4.50296146 26.85305911 4.49072266 31.3347168 C4.48834364 34.60752421 4.50925328 37.87962408 4.53125 41.15234375 C4.51993042 42.16393051 4.50861084 43.17551727 4.49694824 44.21775818 C4.53163583 49.95835301 4.53163583 49.95835301 6.91992188 55.09594727 C10.79161008 58.63999613 13.59506362 59.44843141 18.96875 59.328125 C23.18438391 58.64713798 26.07494703 55.92505297 29 53 C29.29595298 50.89373586 29.29595298 50.89373586 29.23950195 48.44604492 C29.24323318 47.50133835 29.24696442 46.55663177 29.25080872 45.58329773 C29.24667465 44.55936417 29.24254059 43.5354306 29.23828125 42.48046875 C29.25370242 40.32225935 29.27000617 38.1640561 29.28710938 36.00585938 C29.30356563 32.59548399 29.31249597 29.18555831 29.30541992 25.77514648 C29.30280178 22.48890021 29.33091329 19.2040313 29.36328125 15.91796875 C29.35307449 14.90010788 29.34286774 13.88224701 29.33235168 12.83354187 C29.39774411 8.10224109 29.44835372 5.7492648 32.31713867 1.8527832 C35.83918924 -0.57954383 37.804087 -0.68660395 42 0 C44.54283636 1.99975114 45.83086072 3.20037891 46.50793457 6.40130615 C46.51111694 7.29206848 46.51429932 8.18283081 46.51757812 9.10058594 C46.53018677 10.11554138 46.54279541 11.13049683 46.55578613 12.1762085 C46.54768921 13.26790344 46.53959229 14.35959839 46.53125 15.484375 C46.5350769 16.61393616 46.53890381 17.74349731 46.54284668 18.9072876 C46.54556858 21.29790131 46.53818808 23.68854466 46.52148438 26.07910156 C46.50015984 29.72268952 46.52123721 33.36428757 46.546875 37.0078125 C46.54423022 39.33333766 46.53910214 41.65886159 46.53125 43.984375 C46.53934692 45.06797302 46.54744385 46.15157104 46.55578613 47.26800537 C46.44841301 56.01857221 44.25564594 62.57058612 38 69 C29.17265836 75.51632086 20.88722366 76.96748107 10 76 C2.60441591 74.1648402 -3.9016334 69.28040242 -8.3515625 63.1328125 C-11.14953206 58.44269086 -12.11109954 54.50968024 -12.19287109 49.12719727 C-12.20893402 48.162621 -12.22499695 47.19804474 -12.24154663 46.20423889 C-12.28615141 41.81544881 -12.32702574 37.4268054 -12.35009766 33.0378418 C-12.36668712 30.72263559 -12.394016 28.40748122 -12.43212891 26.0925293 C-12.48683899 22.75021877 -12.50875938 19.40910393 -12.5234375 16.06640625 C-12.54610687 15.03294571 -12.56877625 13.99948517 -12.59213257 12.93470764 C-12.57106229 5.78030695 -12.57106229 5.78030695 -9.68994141 1.84350586 C-6.16226735 -0.57412591 -4.19320882 -0.68616144 0 0 Z " fill="#000000" transform="translate(337,106)"/>
<path d="M0 0 C4.64570572 0.73353248 5.77551219 1.78334453 8.5625 5.5625 C9.29943483 9.187875 9.26008129 12.75565424 9.234375 16.4453125 C9.24712463 17.4965329 9.25987427 18.5477533 9.27301025 19.63082886 C9.30930126 22.98332725 9.31201919 26.33482246 9.3125 29.6875 C9.33411186 33.04694431 9.36256822 36.40623659 9.39483643 39.76559448 C9.41259943 41.85451205 9.42288148 43.94350919 9.42498779 46.03250122 C9.43069794 47.44944778 9.43069794 47.44944778 9.43652344 48.89501953 C9.43698669 49.72599152 9.43744995 50.5569635 9.43792725 51.41311646 C9.47952251 53.74824563 9.47952251 53.74824563 10.5625 56.5625 C15.27788755 59.39173253 20.11648575 60.31402938 25.5625 59.5625 C29.61381084 57.46182031 31.88872265 55.79350215 33.5625 51.5625 C33.85938852 49.29097076 33.85938852 49.29097076 33.81787109 46.85742188 C33.82830948 45.4657782 33.82830948 45.4657782 33.83895874 44.04602051 C33.83796173 43.05114624 33.83696472 42.05627197 33.8359375 41.03125 C33.8562206 38.92056756 33.87707126 36.80989051 33.8984375 34.69921875 C33.92107161 31.37446533 33.93752208 28.04992469 33.94335938 24.72509766 C33.95286312 21.51425838 33.98660859 18.30437567 34.0234375 15.09375 C34.01839203 14.09887573 34.01334656 13.10400146 34.00814819 12.07897949 C34.10619584 5.22055798 34.10619584 5.22055798 36.38134766 1.93945312 C39.65516063 -0.12729247 41.77479631 -0.03555848 45.5625 0.5625 C48.49841164 2.60482689 50.29006675 4.21345689 51.01611328 7.80871582 C51.19249523 10.62962808 51.20277536 13.4082735 51.15625 16.234375 C51.15629028 17.27136536 51.15633057 18.30835571 51.15637207 19.37677002 C51.15101715 21.56895002 51.13343579 23.76112954 51.10449219 25.953125 C51.06281794 29.28706456 51.06341153 32.61897007 51.0703125 35.953125 C51.05981268 38.08855555 51.04687034 40.22397577 51.03125 42.359375 C51.03104858 43.34717957 51.03084717 44.33498413 51.03063965 45.35272217 C50.87457888 54.61305234 49.02305283 61.93487374 42.59765625 68.76953125 C35.08299027 75.38993756 27.72666465 76.93146837 17.95703125 76.84375 C10.26346181 76.20630811 3.91689951 73.04142043 -1.4375 67.5625 C-5.56586732 61.94208688 -7.53647872 57.50506164 -7.61450195 50.49023438 C-7.62733719 49.48238892 -7.64017242 48.47454346 -7.65339661 47.43615723 C-7.66078354 46.35378784 -7.66817047 45.27141846 -7.67578125 44.15625 C-7.683853 43.03939819 -7.69192474 41.92254639 -7.70024109 40.77185059 C-7.71406176 38.41155543 -7.72479292 36.05124046 -7.73266602 33.69091797 C-7.74993495 30.07611664 -7.79384663 26.46221684 -7.83789062 22.84765625 C-7.84801299 20.55469422 -7.85653052 18.26172443 -7.86328125 15.96875 C-7.88078934 14.88638062 -7.89829742 13.80401123 -7.91633606 12.68884277 C-7.91341049 11.68099731 -7.91048492 10.67315186 -7.9074707 9.63476562 C-7.91333694 8.74970337 -7.91920319 7.86464111 -7.92524719 6.95275879 C-6.98943831 2.36672437 -4.43740331 0.72612054 0 0 Z " fill="#000000" transform="translate(136.4375,105.4375)"/>
<path d="M0 0 C3.43647594 1.94614137 6.81804707 3.87828163 8.62109375 7.484375 C9.16144521 11.53701098 8.9630877 13.02167731 6.49609375 16.359375 C3.62109375 18.484375 3.62109375 18.484375 0.93359375 19.109375 C-2.34016107 18.49168541 -4.34545741 17.54326794 -7.25390625 15.984375 C-12.03938285 13.44749584 -15.00179123 12.74270396 -20.37890625 13.484375 C-22.83848365 14.82268458 -22.83848365 14.82268458 -24.37890625 16.484375 C-24.23195194 18.43625944 -24.23195194 18.43625944 -23.37890625 20.484375 C-21.35151432 21.74024999 -21.35151432 21.74024999 -18.78515625 22.5625 C-17.84067627 22.9145752 -16.89619629 23.26665039 -15.9230957 23.62939453 C-14.91851318 23.99403809 -13.91393066 24.35868164 -12.87890625 24.734375 C-3.24663611 28.45360633 4.14617906 31.79815096 9.68359375 40.859375 C11.48969369 47.84296144 11.68381786 54.21417884 8.01171875 60.6015625 C3.65787641 66.49637151 -2.08404346 71.12348463 -9.37890625 72.484375 C-20.48096087 73.49624391 -29.95751952 72.1600851 -38.68359375 64.953125 C-39.24304688 64.4684375 -39.8025 63.98375 -40.37890625 63.484375 C-41.61640625 62.5253125 -41.61640625 62.5253125 -42.87890625 61.546875 C-45.12657575 58.45632944 -44.84339874 56.20031493 -44.37890625 52.484375 C-43.31640625 50.109375 -43.31640625 50.109375 -41.37890625 48.484375 C-38.06640625 47.484375 -38.06640625 47.484375 -34.37890625 47.484375 C-31.44140625 49.171875 -31.44140625 49.171875 -28.37890625 51.484375 C-22.92614292 54.93005736 -17.87090079 56.76796327 -11.37890625 55.484375 C-8.35200182 53.66846521 -8.35200182 53.66846521 -6.37890625 51.484375 C-6.47641718 49.071539 -6.47641718 49.071539 -7.37890625 46.484375 C-9.63500519 44.7694869 -9.63500519 44.7694869 -12.56640625 43.546875 C-13.64535156 43.0415625 -14.72429687 42.53625 -15.8359375 42.015625 C-18.23449368 40.9789833 -20.64955991 39.97987048 -23.078125 39.015625 C-31.59206887 35.61366656 -36.87979092 32.93699026 -40.75390625 24.484375 C-42.1297715 17.88022179 -41.52620832 12.41678962 -38.37890625 6.484375 C-35.94140625 3.671875 -35.94140625 3.671875 -33.37890625 1.484375 C-32.73953125 0.9275 -32.10015625 0.370625 -31.44140625 -0.203125 C-21.81376725 -6.32980436 -9.83874695 -4.42129544 0 0 Z " fill="#000000" transform="translate(245.37890625,109.515625)"/>
<path d="M0 0 C1.92005859 -0.0309375 1.92005859 -0.0309375 3.87890625 -0.0625 C5.72935547 -0.07023437 5.72935547 -0.07023437 7.6171875 -0.078125 C8.74495605 -0.0874707 9.87272461 -0.09681641 11.03466797 -0.10644531 C14.48725164 0.29178286 16.35432854 1.18784226 19.125 3.25 C20.67086876 6.34173752 20.41859521 8.84429552 20.125 12.25 C18.77734375 14.4609375 18.77734375 14.4609375 16.125 16.25 C12.53021809 16.74427774 8.99473869 16.62531718 5.375 16.5 C3.89966797 16.47292969 3.89966797 16.47292969 2.39453125 16.4453125 C-0.02906341 16.39825241 -2.45215625 16.32651086 -4.875 16.25 C-4.875 20.87 -4.875 25.49 -4.875 30.25 C-3.12123047 30.19779297 -3.12123047 30.19779297 -1.33203125 30.14453125 C0.21613141 30.11638284 1.76430968 30.08908381 3.3125 30.0625 C4.08142578 30.03736328 4.85035156 30.01222656 5.64257812 29.98632812 C10.3422263 29.92581763 13.26104564 30.27137887 17.125 33.25 C18.9753199 35.1003199 18.41640132 37.67472082 18.55078125 40.14453125 C17.89154113 43.40444342 16.88633319 44.37995686 14.125 46.25 C10.8603584 46.73537134 7.66608832 46.62639335 4.375 46.5 C3.04275391 46.47292969 3.04275391 46.47292969 1.68359375 46.4453125 C-0.50306775 46.39828752 -2.68917281 46.32654648 -4.875 46.25 C-4.875 50.87 -4.875 55.49 -4.875 60.25 C-3.48925781 60.19199219 -2.10351562 60.13398438 -0.67578125 60.07421875 C1.1536121 60.02731123 2.98304194 59.98181213 4.8125 59.9375 C5.72451172 59.89560547 6.63652344 59.85371094 7.57617188 59.81054688 C12.21530775 59.72619895 14.40422287 59.71756664 18.234375 62.546875 C20.7050149 66.07927751 20.8163744 68.02493423 20.125 72.25 C18.55664062 74.42944336 18.55664062 74.42944336 16.125 76.25 C13.49356841 76.66045674 11.28565425 76.83534427 8.65625 76.81640625 C7.5802655 76.82570412 7.5802655 76.82570412 6.48254395 76.83518982 C4.96965896 76.84227697 3.4566958 76.83913308 1.94384766 76.82641602 C-0.36832326 76.81254007 -2.67645158 76.84663692 -4.98828125 76.88476562 C-6.46093849 76.88571682 -7.93360078 76.88385795 -9.40625 76.87890625 C-10.09489136 76.89216446 -10.78353271 76.90542267 -11.49304199 76.91908264 C-14.96201369 76.85193377 -16.54078288 76.57623107 -19.05639648 74.12072754 C-21.23578181 70.68049363 -21.38136918 68.73537094 -21.39257812 64.68725586 C-21.40518677 63.37917465 -21.41779541 62.07109344 -21.43078613 60.72337341 C-21.42362686 59.30385802 -21.41542301 57.88434756 -21.40625 56.46484375 C-21.40894629 55.00183352 -21.41282986 53.53882504 -21.41784668 52.07582092 C-21.42373353 49.01513546 -21.41520448 45.95491803 -21.39648438 42.89428711 C-21.37367421 38.97429965 -21.38683479 35.05540645 -21.41077423 31.13545895 C-21.42523748 28.11649854 -21.42062435 25.09779708 -21.41026306 22.07882881 C-21.40759824 20.63355949 -21.41085701 19.18826652 -21.42018127 17.74302483 C-21.43035567 15.72313776 -21.41209426 13.70316802 -21.39257812 11.68334961 C-21.38939575 10.53483017 -21.38621338 9.38631073 -21.38293457 8.20298767 C-20.76403765 4.60489636 -19.73372447 3.45247679 -16.875 1.25 C-11.47062705 -0.55145765 -5.65531834 0.02264392 0 0 Z " fill="#000000" transform="translate(290.875,105.75)"/>
</svg>
